<svg width="600" height="231" viewBox="0 0 600 231" fill="none" xmlns="http://www.w3.org/2000/svg">
<path fill-rule="evenodd" clip-rule="evenodd" d="M539.73 19.0477H60.2703C45.7732 19.0477 36.7641 19.0871 30.2136 19.9678C24.3013 20.7627 23.1335 21.9365 22.7861 22.2856C22.7799 22.2918 22.774 22.2978 22.7683 22.3035C22.7626 22.3092 22.7567 22.3151 22.7504 22.3213C22.4013 22.6686 21.2275 23.8365 20.4326 29.7487C19.5519 36.2993 19.5126 45.3084 19.5126 59.8055V170.963C19.5126 185.46 19.5519 194.469 20.4326 201.02C21.2275 206.932 22.4013 208.1 22.7505 208.447L22.7683 208.465L22.7861 208.483C23.1335 208.832 24.3013 210.006 30.2136 210.801C36.7641 211.681 45.7732 211.721 60.2703 211.721H539.73C554.227 211.721 563.236 211.681 569.787 210.801C575.699 210.006 576.867 208.832 577.214 208.483L577.232 208.465L577.25 208.447C577.599 208.1 578.773 206.932 579.568 201.02C580.448 194.469 580.488 185.46 580.488 170.963V59.8055C580.488 45.3084 580.448 36.2993 579.568 29.7487C578.773 23.8366 577.599 22.6687 577.25 22.3213L577.232 22.3035L577.214 22.2856C576.867 21.9364 575.699 20.7627 569.787 19.9678C563.236 19.0871 554.227 19.0477 539.73 19.0477ZM9.66827 9.20343C0.986328 17.8854 0.986328 31.8587 0.986328 59.8055V170.963C0.986328 198.91 0.986328 212.883 9.66827 221.565C18.3502 230.247 32.3236 230.247 60.2703 230.247H539.73C567.677 230.247 581.65 230.247 590.332 221.565C599.014 212.883 599.014 198.91 599.014 170.963V59.8055C599.014 31.8587 599.014 17.8854 590.332 9.20343C581.65 0.521484 567.677 0.521484 539.73 0.521484H60.2703C32.3236 0.521484 18.3502 0.521484 9.66827 9.20343Z" fill="#3CDB4E"/>
<path fill-rule="evenodd" clip-rule="evenodd" d="M109.684 222.046L184.9 3.43652L202.419 9.46401L127.202 228.074L109.684 222.046Z" fill="#3CDB4E"/>
<path d="M95.4697 142.248C95.4697 151.558 87.9217 159.106 78.6108 159.106C69.2999 159.106 61.752 151.558 61.752 142.248C61.752 132.937 69.2999 125.389 78.6108 125.389C87.9217 125.389 95.4697 132.937 95.4697 142.248Z" fill="#3CDB4E"/>
<path d="M230.175 157.643C226.786 157.643 225.092 157.643 224.448 156.541C223.805 155.439 224.637 153.964 226.302 151.012L245.84 116.382C246.441 115.316 246.742 114.783 246.742 114.199C246.743 113.616 246.442 113.082 245.841 112.015L227.721 79.8478C226.059 76.8973 225.228 75.4221 225.872 74.3207C226.516 73.2193 228.209 73.2193 231.595 73.2193H244.334C245.666 73.2193 246.332 73.2193 246.868 73.5493C247.404 73.8793 247.704 74.474 248.304 75.6634L254.593 88.1329C255.544 90.035 256.538 92.1099 257.576 94.3577C258.584 96.5429 259.674 98.9732 260.846 101.649C260.908 101.789 261.046 101.879 261.199 101.879C261.36 101.879 261.504 101.78 261.56 101.63C262.564 98.9617 263.527 96.5377 264.449 94.3577C265.4 92.1099 266.308 90.035 267.172 88.1329L272.734 75.8337C273.308 74.5643 273.595 73.9296 274.145 73.5745C274.695 73.2193 275.392 73.2193 276.785 73.2193H288.576C291.926 73.2193 293.602 73.2193 294.247 74.3105C294.893 75.4017 294.086 76.87 292.473 79.8065L274.215 113.041C273.625 114.113 273.33 114.65 273.337 115.233C273.343 115.817 273.649 116.347 274.262 117.406L293.662 150.972C295.376 153.937 296.233 155.419 295.591 156.531C294.949 157.643 293.237 157.643 289.813 157.643H277.105C275.804 157.643 275.153 157.643 274.625 157.326C274.097 157.009 273.791 156.435 273.18 155.286L265.875 141.563C264.751 139.315 263.671 137.067 262.633 134.819C261.626 132.636 260.537 130.29 259.366 127.781C259.302 127.644 259.165 127.557 259.014 127.557C258.851 127.557 258.706 127.659 258.649 127.811C257.727 130.309 256.764 132.645 255.76 134.819C254.809 137.067 253.772 139.315 252.648 141.563L245.959 155.16C245.365 156.368 245.067 156.972 244.528 157.308C243.988 157.643 243.315 157.643 241.969 157.643H230.175Z" fill="#3CDB4E"/>
<path d="M337.799 159.2C331.056 159.2 325.09 157.557 319.903 154.272C314.802 150.9 310.782 145.972 307.842 139.488C304.989 132.917 303.563 124.79 303.563 115.107C303.563 105.597 304.989 97.6431 307.842 91.2453C310.782 84.7612 314.802 79.8764 319.903 76.5911C325.09 73.3058 331.056 71.6631 337.799 71.6631C344.543 71.6631 350.465 73.3058 355.566 76.5911C360.753 79.8764 364.773 84.7612 367.627 91.2453C370.566 97.6431 372.036 105.597 372.036 115.107C372.036 124.79 370.566 132.917 367.627 139.488C364.773 145.972 360.753 150.9 355.566 154.272C350.465 157.557 344.543 159.2 337.799 159.2ZM337.799 141.303C340.479 141.303 342.77 140.352 344.673 138.45C346.661 136.462 348.174 133.522 349.211 129.632C350.335 125.741 350.897 120.9 350.897 115.107C350.897 109.488 350.335 104.776 349.211 100.972C348.174 97.1676 346.661 94.3145 344.673 92.4125C342.77 90.5105 340.479 89.5594 337.799 89.5594C335.119 89.5594 332.785 90.5105 330.796 92.4125C328.894 94.3145 327.381 97.1676 326.257 100.972C325.22 104.776 324.701 109.488 324.701 115.107C324.701 120.9 325.22 125.741 326.257 129.632C327.381 133.522 328.894 136.462 330.796 138.45C332.785 140.352 335.119 141.303 337.799 141.303Z" fill="#3CDB4E"/>
<path d="M389.27 157.643C387.174 157.643 386.126 157.643 385.475 156.992C384.824 156.341 384.824 155.293 384.824 153.197V77.6656C384.824 75.5696 384.824 74.5216 385.475 73.8704C386.126 73.2193 387.174 73.2193 389.27 73.2193H402.954C404.411 73.2193 405.14 73.2193 405.704 73.6012C406.268 73.9831 406.539 74.6594 407.081 76.012L421.913 113.032L428.847 131.65C428.889 131.762 428.996 131.836 429.115 131.836C429.286 131.836 429.418 131.688 429.399 131.519C428.888 127.019 428.295 122.024 427.619 116.534C426.928 110.828 426.582 105.424 426.582 100.323V77.6656C426.582 75.5696 426.582 74.5216 427.233 73.8704C427.884 73.2193 428.932 73.2193 431.028 73.2193H441.848C443.944 73.2193 444.992 73.2193 445.643 73.8704C446.294 74.5216 446.294 75.5696 446.294 77.6656V153.197C446.294 155.293 446.294 156.341 445.643 156.992C444.992 157.643 443.944 157.643 441.848 157.643H428.168C426.709 157.643 425.979 157.643 425.415 157.261C424.85 156.878 424.579 156.201 424.038 154.846L409.204 117.701L402.271 99.2125C402.229 99.1005 402.122 99.0264 402.003 99.0264C401.832 99.0264 401.699 99.1744 401.717 99.3441C402.228 104.012 402.822 109.094 403.498 114.588C404.19 120.122 404.536 125.395 404.536 130.41V153.197C404.536 155.293 404.536 156.341 403.885 156.992C403.233 157.643 402.185 157.643 400.089 157.643H389.27Z" fill="#3CDB4E"/>
<path d="M470.272 157.643C468.176 157.643 467.128 157.643 466.477 156.992C465.826 156.341 465.826 155.293 465.826 153.197V77.6656C465.826 75.5696 465.826 74.5216 466.477 73.8704C467.128 73.2193 468.176 73.2193 470.272 73.2193H518.051C520.147 73.2193 521.195 73.2193 521.846 73.8704C522.497 74.5216 522.497 75.5696 522.497 77.6656V86.1506C522.497 88.2466 522.497 89.2946 521.846 89.9458C521.195 90.5969 520.147 90.5969 518.051 90.5969H491.021C488.925 90.5969 487.877 90.5969 487.226 91.2481C486.575 91.8992 486.575 92.9472 486.575 95.0432V101.194C486.575 103.29 486.575 104.338 487.226 104.989C487.877 105.64 488.925 105.64 491.021 105.64H512.734C514.83 105.64 515.878 105.64 516.529 106.291C517.18 106.943 517.18 107.991 517.18 110.087V118.572C517.18 120.668 517.18 121.716 516.529 122.367C515.878 123.018 514.83 123.018 512.734 123.018H491.021C488.925 123.018 487.877 123.018 487.226 123.669C486.575 124.32 486.575 125.368 486.575 127.464V135.82C486.575 137.916 486.575 138.964 487.226 139.615C487.877 140.266 488.925 140.266 491.021 140.266H519.348C521.444 140.266 522.492 140.266 523.143 140.917C523.794 141.568 523.794 142.616 523.794 144.712V153.197C523.794 155.293 523.794 156.341 523.143 156.992C522.492 157.643 521.444 157.643 519.348 157.643H470.272Z" fill="#3CDB4E"/>
</svg>
